<svg id="Isotipo_Promolandia" data-name="Isotipo Promolandia" xmlns="http://www.w3.org/2000/svg" width="99.391"
      height="117.333" viewBox="0 0 99.391 117.333">
      <path id="Caminho_1" data-name="Caminho 1"
        d="M362.38,227.2a49.717,49.717,0,0,1-66.315,46.843h-.009a9.252,9.252,0,0,0-5.66,2.852c-3.976,3.9-15.683,14.9-17.132,16.259-.09.09-.144.135-.144.135a5.374,5.374,0,1,1-7.09-8.053.935.935,0,0,1,.091-.081c1.151-1.089,12.147-11.49,17.716-17.483.765-.837,1.44-1.584,1.961-2.213,3.446-4.148,6.946-4.463,11.041-3.428.018.009.027.018.045.018A38.262,38.262,0,1,0,274.425,227.2V273.58a1.616,1.616,0,0,1-.45,1.125l-9.862,10.1a.655.655,0,0,1-1.125-.477V227.2a49.7,49.7,0,0,1,99.391,0Z"
        transform="translate(-262.989 -177.509)" fill="#f36620" />
      <g id="Porcentagem" transform="translate(34.893 27.085)">
        <ellipse id="Elipse_2" data-name="Elipse 2" cx="6.987" cy="7.498" rx="6.987" ry="7.498"
          transform="translate(15.711 33.225)" fill="#f36620" />
        <path id="Caminho_3" data-name="Caminho 3"
          d="M305.365,254.362a3.6,3.6,0,0,1-3.228-5.187l19.435-39.552a3.6,3.6,0,1,1,6.461,3.174L308.6,252.35A3.6,3.6,0,0,1,305.365,254.362Z"
          transform="translate(-301.768 -207.61)" fill="#f36620" />
        <ellipse id="Elipse_1" data-name="Elipse 1" cx="6.987" cy="7.498" rx="6.987" ry="7.498"
          transform="translate(-0.997 -3.049)" fill="#f36620" />
      </g>
    </svg>