<svg xmlns="http://www.w3.org/2000/svg" version="1.1" xmlns:xlink="http://www.w3.org/1999/xlink" xmlns:svgjs="http://svgjs.com/svgjs" width="512" height="512" x="0" y="0" viewBox="0 0 256 256" style="enable-background:new 0 0 512 512" xml:space="preserve" class=""><g><g xmlns="http://www.w3.org/2000/svg" fill="rgb(0,0,0)"><path d="m185.17 202.33h-163.61c-4.544 0-8.24-3.75-8.24-8.36v-6.11h170.69c4.629 0 4.633-7 0-7h-172.969c-2.603 0-4.721 2.122-4.721 4.73v8.38c0 8.469 6.837 15.36 15.24 15.36h163.61c4.629 0 4.633-7 0-7z" fill="#737373" data-original="#000000" class=""></path><path d="m108.74 191.594c-4.629 0-4.633 7 0 7h37.774c4.629 0 4.633-7 0-7z" fill="#737373" data-original="#000000" class=""></path><path d="m25.69 87.3v-33.63h203.88v49.67c0 4.627 7 4.634 7 0v-50.07c0-3.639-2.947-6.6-6.569-6.6h-204.751c-3.617 0-6.561 2.96-6.561 6.6v34.03c.001 4.627 7.001 4.634 7.001 0z" fill="#737373" data-original="#000000" class=""></path><path d="m25.69 174.09v-65.16c0-4.627-7-4.634-7 0v65.16c0 4.627 7 4.634 7 0z" fill="#737373" data-original="#000000" class=""></path><path d="m246.18 163.44c1.933 0 3.5-1.567 3.5-3.5v-39.43c0-5.277-4.293-9.57-9.57-9.57h-39.029c-5.277 0-9.57 4.293-9.57 9.57v79.25c0 5.277 4.293 9.57 9.57 9.57h39.029c5.277 0 9.57-4.293 9.57-9.57v-18.19c0-4.627-7-4.634-7 0v18.19c0 1.417-1.153 2.57-2.57 2.57h-39.029c-1.417 0-2.57-1.153-2.57-2.57v-79.25c0-1.417 1.153-2.57 2.57-2.57h39.029c1.417 0 2.57 1.153 2.57 2.57v39.43c0 1.933 1.568 3.5 3.5 3.5z" fill="#737373" data-original="#000000" class=""></path><path d="m234.923 180.86h-28.656c-4.629 0-4.633 7 0 7h28.656c4.629 0 4.633-7 0-7z" fill="#737373" data-original="#000000" class=""></path><path d="m234.923 126.387h-28.656c-4.629 0-4.633 7 0 7h28.656c4.629 0 4.633-7 0-7z" fill="#737373" data-original="#000000" class=""></path><path d="m216.743 191.594c-4.629 0-4.633 7 0 7h7.701c4.629 0 4.633-7 0-7z" fill="#737373" data-original="#000000" class=""></path><path d="m156.804 121.595-6.63-6.63c-3.278-3.276-8.221 1.679-4.949 4.95l6.63 6.63c3.277 3.274 8.224-1.675 4.949-4.95z" fill="#737373" data-original="#000000" class=""></path><path d="m130.48 103.72c.896 0 1.792-.342 2.475-1.025 1.367-1.367 1.367-3.583 0-4.95l-27.92-27.92c-3.271-3.271-8.227 1.672-4.949 4.949 29.219 28.672 27.729 28.946 30.394 28.946z" fill="#737373" data-original="#000000" class=""></path><path d="m98.457 102.664 51.771 51.771c3.277 3.274 8.224-1.676 4.949-4.95l-51.771-51.771c-3.279-3.276-8.221 1.679-4.949 4.95z" fill="#737373" data-original="#000000" class=""></path></g></g></svg>